<svg width="50" height="44" viewBox="0 0 50 44" fill="none" xmlns="http://www.w3.org/2000/svg">
<path d="M0 5.5002C0 2.46095 2.45 0 5.46875 0H32.0312C35.0531 0 37.5 2.46095 37.5 5.5002V22.7865C37.5 24.2453 36.9238 25.6443 35.8982 26.6758C34.8727 27.7073 33.4817 28.2867 32.0312 28.2867H22.0656L14.0219 36.3736C13.3851 37.0137 12.574 37.4496 11.691 37.6262C10.8079 37.8027 9.89271 37.712 9.06093 37.3656C8.22916 37.0191 7.51817 36.4324 7.01785 35.6796C6.51752 34.9269 6.25031 34.0418 6.25 33.1363V28.2867H5.46875C4.01835 28.2867 2.62735 27.7073 1.60176 26.6758C0.57617 25.6443 0 24.2453 0 22.7865L0 5.5002ZM5.46875 4.71446C5.26155 4.71446 5.06284 4.79724 4.91632 4.9446C4.76981 5.09195 4.6875 5.29181 4.6875 5.5002V22.7865C4.6875 23.2203 5.0375 23.5723 5.46875 23.5723H8.59375C9.21535 23.5723 9.81149 23.8206 10.251 24.2627C10.6906 24.7048 10.9375 25.3043 10.9375 25.9295V32.8095L19.4375 24.2637C19.8766 23.8215 20.4724 23.5728 21.0938 23.5723H32.0312C32.2385 23.5723 32.4372 23.4895 32.5837 23.3421C32.7302 23.1948 32.8125 22.9949 32.8125 22.7865V5.5002C32.8125 5.29181 32.7302 5.09195 32.5837 4.9446C32.4372 4.79724 32.2385 4.71446 32.0312 4.71446H5.46875ZM44.5312 11.0004H42.9688C42.3471 11.0004 41.751 10.752 41.3115 10.31C40.8719 9.86792 40.625 9.26835 40.625 8.64317C40.625 8.018 40.8719 7.41842 41.3115 6.97636C41.751 6.53429 42.3471 6.28594 42.9688 6.28594H44.5312C47.5531 6.28594 50 8.74689 50 11.7861V29.0725C50 30.5312 49.4238 31.9302 48.3982 32.9617C47.3727 33.9932 45.9817 34.5727 44.5312 34.5727H43.75V39.4223C43.7497 40.3278 43.4825 41.2128 42.9822 41.9656C42.4818 42.7183 41.7708 43.305 40.9391 43.6515C40.1073 43.998 39.1921 44.0887 38.309 43.9121C37.426 43.7355 36.6149 43.2997 35.9781 42.6595L28.8125 35.4527C28.595 35.234 28.4225 34.9743 28.3048 34.6885C28.187 34.4026 28.1265 34.0963 28.1265 33.7869C28.1265 33.4776 28.187 33.1712 28.3048 32.8854C28.4225 32.5996 28.595 32.3399 28.8125 32.1212C29.03 31.9024 29.2882 31.7289 29.5724 31.6105C29.8566 31.4921 30.1612 31.4312 30.4688 31.4312C30.7763 31.4312 31.0809 31.4921 31.3651 31.6105C31.6493 31.7289 31.9075 31.9024 32.125 32.1212L39.0625 39.0954V32.2155C39.0625 31.5903 39.3094 30.9907 39.749 30.5486C40.1885 30.1066 40.7846 29.8582 41.4062 29.8582H44.5312C44.7385 29.8582 44.9372 29.7754 45.0837 29.6281C45.2302 29.4807 45.3125 29.2809 45.3125 29.0725V11.7861C45.3125 11.5778 45.2302 11.3779 45.0837 11.2305C44.9372 11.0832 44.7385 11.0004 44.5312 11.0004ZM27.4375 11.8804L18.0625 21.3093C17.8455 21.5291 17.5875 21.7034 17.3032 21.8224C17.019 21.9414 16.7141 22.0026 16.4062 22.0026C16.0984 22.0026 15.7935 21.9414 15.5093 21.8224C15.225 21.7034 14.967 21.5291 14.75 21.3093L10.0625 16.5949C9.845 16.3761 9.67247 16.1164 9.55475 15.8306C9.43704 15.5448 9.37646 15.2385 9.37646 14.9291C9.37646 14.6198 9.43704 14.3134 9.55475 14.0276C9.67247 13.7418 9.845 13.4821 10.0625 13.2633C10.28 13.0446 10.5382 12.8711 10.8224 12.7527C11.1066 12.6343 11.4112 12.5734 11.7188 12.5734C12.0263 12.5734 12.3309 12.6343 12.6151 12.7527C12.8993 12.8711 13.1575 13.0446 13.375 13.2633L16.4062 16.3089L24.125 8.54888C24.5643 8.10709 25.16 7.8589 25.7812 7.8589C26.4025 7.8589 26.9982 8.10709 27.4375 8.54888C27.8768 8.99067 28.1235 9.58987 28.1235 10.2147C28.1235 10.8394 27.8768 11.4386 27.4375 11.8804Z" fill="#FF4500"/>
</svg>
