<svg width="43" height="46" viewBox="0 0 43 46" fill="none" xmlns="http://www.w3.org/2000/svg">
<path d="M16.0532 20.0653C21.1194 20.0653 25.2264 15.9583 25.2264 10.892C25.2264 5.82576 21.1194 1.71875 16.0532 1.71875C10.9869 1.71875 6.87988 5.82576 6.87988 10.892C6.87988 15.9583 10.9869 20.0653 16.0532 20.0653Z" fill="#FF4500"/>
<path d="M16.0532 45.2918C24.9192 45.2918 32.1064 41.1848 32.1064 36.1186C32.1064 31.0523 24.9192 26.9453 16.0532 26.9453C7.18727 26.9453 0 31.0523 0 36.1186C0 41.1848 7.18727 45.2918 16.0532 45.2918Z" fill="#FF4500"/>
<path fill-rule="evenodd" clip-rule="evenodd" d="M35.2184 0.834657C35.4531 0.443586 35.8337 0.161793 36.2762 0.0512643C36.7188 -0.0592647 37.1871 0.0105226 37.5782 0.245275L37.5851 0.249861L37.5942 0.254448L37.6172 0.268208L37.8763 0.4425C38.0368 0.554873 38.257 0.717698 38.5116 0.928683C39.0207 1.35295 39.6857 1.9882 40.3508 2.85048C41.6855 4.58882 42.9996 7.23989 42.9996 10.8931C42.9996 14.5464 41.6855 17.1998 40.3508 18.9358C39.6857 19.7981 39.0207 20.4333 38.5116 20.8576C38.246 21.0795 37.968 21.2863 37.6791 21.4768L37.6149 21.5181L37.5919 21.5318L37.5851 21.5364L37.5805 21.5387C37.5805 21.5387 37.5782 21.541 36.693 20.0664L37.5782 21.541C37.1886 21.7621 36.7282 21.8225 36.2948 21.7094C35.8615 21.5962 35.4893 21.3185 35.2575 20.9353C35.0257 20.552 34.9525 20.0935 35.0536 19.6571C35.1546 19.2208 35.4219 18.841 35.7986 18.5987L35.81 18.5895L35.9041 18.5276C35.9958 18.4634 36.1311 18.3594 36.31 18.2157C36.6586 17.9222 37.1402 17.4681 37.624 16.8397C38.5804 15.5967 39.5596 13.6612 39.5596 10.8931C39.5596 8.12511 38.5804 6.19185 37.624 4.94657C37.2376 4.44133 36.7969 3.97991 36.31 3.57058C36.1491 3.43848 35.9822 3.31375 35.81 3.19677L35.7986 3.18989C35.4103 2.95363 35.1313 2.57328 35.0226 2.13197C34.9139 1.69065 34.9843 1.22424 35.2184 0.834657Z" fill="#FF4500"/>
<path fill-rule="evenodd" clip-rule="evenodd" d="M30.57 5.5376C30.7738 5.12949 31.1313 4.81903 31.564 4.67453C31.9966 4.53002 32.469 4.5633 32.8771 4.76704L32.8794 4.76933L32.884 4.77163L32.8932 4.77621L32.9115 4.78539L32.9619 4.81291C33.148 4.9173 33.3266 5.03454 33.4963 5.16378C33.8082 5.3977 34.2072 5.74629 34.5971 6.23476C35.3975 7.23465 36.1198 8.75512 36.1198 10.8925C36.1198 13.0299 35.3952 14.5503 34.5971 15.5502C34.1738 16.077 33.6672 16.531 33.0973 16.8941L32.9597 16.9721L32.9138 16.9996L32.8909 17.0088L32.884 17.0134L32.8794 17.0156L32.1226 15.5089L32.8771 17.0179C32.4711 17.2263 31.999 17.2648 31.5646 17.125C31.1302 16.9852 30.7692 16.6786 30.5608 16.2726C30.3525 15.8666 30.314 15.3945 30.4538 14.9601C30.5936 14.5257 30.9002 14.1647 31.3062 13.9564L31.3131 13.9541L31.4323 13.8715C31.5516 13.7798 31.7304 13.6284 31.9116 13.4014C32.2556 12.9679 32.6799 12.1951 32.6799 10.8925C32.6799 9.58989 32.2579 8.81704 31.9116 8.3836C31.7405 8.17151 31.5387 7.98602 31.3131 7.83321L31.3062 7.82862C30.9073 7.61924 30.6064 7.26169 30.4683 6.83285C30.3303 6.40401 30.3659 5.93811 30.5677 5.5353" fill="#FF4500"/>
</svg>
