<svg width="49" height="51" viewBox="0 0 49 51" fill="none" xmlns="http://www.w3.org/2000/svg">
<path d="M27.5399 43.7803C27.5399 43.7803 29.8609 43.7803 32.1818 48.4222C32.1818 48.4222 39.5555 36.8174 46.1076 34.4964M12.4536 34.4964H21.7375M12.4536 22.8916H31.0213M11.2931 5.48438C7.68172 5.59346 5.53019 5.99499 4.04013 7.48505C2 9.52749 2 12.8117 2 19.3823V34.4825C2 41.0555 2 44.3396 4.04013 46.3821C6.07793 48.4222 9.3621 48.4222 15.9258 48.4222H21.7282M32.1632 5.48438C35.7747 5.59346 37.9285 5.99499 39.4163 7.48505C41.4587 9.52749 41.4587 12.8117 41.4587 19.3823V28.694" stroke="#FF4500" stroke-width="4" stroke-linecap="round" stroke-linejoin="round"/>
<path d="M11.2832 6.06169C11.2832 3.81964 13.1028 2 15.3449 2H28.1102C29.1874 2 30.2205 2.42793 30.9822 3.18964C31.744 3.95135 32.1719 4.98446 32.1719 6.06169C32.1719 7.13891 31.744 8.17202 30.9822 8.93373C30.2205 9.69545 29.1874 10.1234 28.1102 10.1234H15.3449C14.2677 10.1234 13.2346 9.69545 12.4728 8.93373C11.7111 8.17202 11.2832 7.13891 11.2832 6.06169Z" stroke="#FF4500" stroke-width="4" stroke-linecap="round" stroke-linejoin="round"/>
</svg>
