<svg width="50" height="50" viewBox="0 0 50 50" fill="none" xmlns="http://www.w3.org/2000/svg">
<path d="M42.5287 16.2017L41.9696 17.488C41.8823 17.6974 41.7349 17.8763 41.546 18.0022C41.3571 18.128 41.1353 18.1952 40.9083 18.1952C40.6813 18.1952 40.4595 18.128 40.2706 18.0022C40.0817 17.8763 39.9343 17.6974 39.847 17.488L39.2879 16.2017C38.3049 13.9261 36.5047 12.1017 34.2425 11.0883L32.5176 10.3179C32.3083 10.2216 32.131 10.0673 32.0067 9.8734C31.8825 9.67945 31.8164 9.45394 31.8164 9.22359C31.8164 8.99325 31.8825 8.76774 32.0067 8.57379C32.131 8.37984 32.3083 8.22559 32.5176 8.12933L34.1471 7.40437C36.4661 6.3621 38.2971 4.47015 39.2629 2.11826L39.8401 0.729694C39.9246 0.5146 40.0719 0.329936 40.2628 0.199777C40.4538 0.0696174 40.6795 0 40.9106 0C41.1417 0 41.3674 0.0696174 41.5583 0.199777C41.7493 0.329936 41.8966 0.5146 41.981 0.729694L42.556 2.11599C43.5207 4.46832 45.3509 6.36108 47.6695 7.40437L49.3013 8.1316C49.51 8.22814 49.6866 8.38237 49.8104 8.57607C49.9342 8.76977 50 8.99485 50 9.22473C50 9.45461 49.9342 9.67969 49.8104 9.87339C49.6866 10.0671 49.51 10.2213 49.3013 10.3179L47.5741 11.086C45.3123 12.1004 43.513 13.9257 42.531 16.2017" fill="#FF4500"/>
<line x1="22.5" y1="6.5" x2="22.5" y2="47.5" stroke="#FF4500" stroke-width="5" stroke-linecap="round"/>
<line x1="33.5" y1="20.5" x2="33.5" y2="38.5" stroke="#FF4500" stroke-width="5" stroke-linecap="round"/>
<line x1="43.5" y1="25.5" x2="43.5" y2="32.5" stroke="#FF4500" stroke-width="5" stroke-linecap="round"/>
<line x1="2.5" y1="23.5" x2="2.5" y2="30.5" stroke="#FF4500" stroke-width="5" stroke-linecap="round"/>
<line x1="12.5" y1="15.5" x2="12.5" y2="38.5" stroke="#FF4500" stroke-width="5" stroke-linecap="round"/>
</svg>
