<svg width="61" height="56" viewBox="0 0 61 56" fill="none" xmlns="http://www.w3.org/2000/svg">
<path d="M20.5167 13.036C21.0209 11.6537 22.977 11.6556 23.483 13.036L26.9993 22.6389C27.5335 24.0979 28.3795 25.4229 29.4782 26.5216C30.5768 27.6203 31.9018 28.4662 33.3609 29.0005L42.9619 32.5167C44.346 33.0209 44.346 34.977 42.9619 35.483L33.3609 38.9993C31.9018 39.5335 30.5768 40.3795 29.4782 41.4782C28.3795 42.5768 27.5335 43.9018 26.9993 45.3609L23.483 54.9619C22.977 56.346 21.0209 56.346 20.5167 54.9619L17.0005 45.3609C16.4662 43.9018 15.6203 42.5768 14.5216 41.4782C13.4229 40.3795 12.0979 39.5335 10.6389 38.9993L1.03605 35.483C-0.344432 34.977 -0.346265 33.0227 1.03605 32.5167L10.6389 29.0005C12.0979 28.4662 13.4229 27.6203 14.5216 26.5216C15.6203 25.4229 16.4662 24.0979 17.0005 22.6389L20.5167 13.036ZM19.5909 23.5885C18.9182 25.4235 17.8539 27.0899 16.4719 28.4719C15.0899 29.8539 13.4235 30.9182 11.5885 31.5909L5.00515 33.9999L11.5885 36.4107C13.4241 37.0823 15.0911 38.1463 16.4732 39.5284C17.8553 40.9105 18.9193 42.5775 19.5909 44.4131L21.9999 50.9928L24.4107 44.4131C25.0823 42.5775 26.1463 40.9105 27.5284 39.5284C28.9105 38.1463 30.5775 37.0823 32.4131 36.4107L38.9928 33.9999L32.4131 31.5909C30.5775 30.9193 28.9105 29.8553 27.5284 28.4732C26.1463 27.0911 25.0823 25.4241 24.4107 23.5885L21.9999 17.0052L19.5909 23.5885Z" fill="#FF4500"/>
<path d="M22.1279 27.1445C23.825 29.6862 25.9667 32.1305 28.6924 34.1396C28.3592 34.3481 28.025 34.5666 27.6914 34.7969C25.4756 36.3263 23.4023 38.2701 21.6191 40.791C21.5223 40.6329 21.4242 40.4753 21.3232 40.3193C19.8283 38.0102 17.893 35.8779 15.3604 34.0371C17.8646 32.2932 20.2214 30.0285 22.1279 27.1445Z" stroke="#FF4500" stroke-width="10" stroke-linecap="round"/>
<path d="M48.1909 0.565116C48.4659 -0.188872 49.5329 -0.187872 49.8089 0.565116L51.7269 5.80303C52.0183 6.59887 52.4797 7.3216 53.079 7.92088C53.6783 8.52016 54.401 8.98158 55.1968 9.27298L60.4338 11.1909C61.1887 11.4659 61.1887 12.5329 60.4338 12.8089L55.1968 14.7269C54.401 15.0183 53.6783 15.4797 53.079 16.079C52.4797 16.6783 52.0183 17.401 51.7269 18.1968L49.8089 23.4338C49.5329 24.1887 48.4659 24.1887 48.1909 23.4338L46.273 18.1968C45.9816 17.401 45.5202 16.6783 44.9209 16.079C44.3216 15.4797 43.5989 15.0183 42.803 14.7269L37.5651 12.8089C36.8121 12.5329 36.8111 11.4669 37.5651 11.1909L42.803 9.27298C43.5989 8.98158 44.3216 8.52016 44.9209 7.92088C45.5202 7.3216 45.9816 6.59887 46.273 5.80303L48.1909 0.565116ZM47.686 6.32103C47.319 7.32192 46.7385 8.23087 45.9847 8.98467C45.2309 9.73847 44.3219 10.319 43.321 10.686L39.7301 11.9999L43.321 13.3149C44.3223 13.6813 45.2315 14.2616 45.9854 15.0155C46.7393 15.7694 47.3196 16.6786 47.686 17.6798L48.9999 21.2688L50.3149 17.6798C50.6813 16.6786 51.2616 15.7694 52.0155 15.0155C52.7694 14.2616 53.6786 13.6813 54.6798 13.3149L58.2688 11.9999L54.6798 10.686C53.6786 10.3196 52.7694 9.73927 52.0155 8.98539C51.2616 8.23151 50.6813 7.32225 50.3149 6.32103L48.9999 2.73008L47.686 6.32103Z" fill="#FF4500"/>
<path d="M49.0645 10.3906C49.5183 10.9463 50.0147 11.4864 50.5615 11.9971C49.9664 12.4706 49.3962 13.0001 48.8584 13.5928C48.4263 13.0532 47.947 12.5376 47.416 12.0488C47.9928 11.5514 48.5462 10.9999 49.0645 10.3906Z" stroke="#FF4500" stroke-width="8" stroke-linecap="round"/>
</svg>
